<svg id="svg-icon" version="1.1" xmlns="http://www.w3.org/2000/svg" viewBox="0 -339.5309225 968.774765 968.774765" preserveAspectRatio="xMidYMid meet">
            <g transform="translate(-10.000000,303.139729) scale(0.100000,-0.100000)" fill="#FF0000" stroke="none">
                <path d="M100 1586 c0 -795 3 -1447 8 -1449 4 -2 93 10 197 28 l190 32 5 1044 c3 574 8 1035 12 1024 23 -65 422 -1538 498 -1840 18 -72 36 -133 39 -137 6 -6 288 26 419 48 l32 5 0 1344 0 1345 -195 0 -195 0 -1 -797 -1 -798 -23 75 c-13 41 -107 376 -210 745 -102 369 -193 694 -201 723 l-15 52 -280 0 -279 0 0 -1444z"/>
                <path d="M1820 1705 c0 -1255 1 -1325 18 -1325 9 0 100 9 202 20 227 24 715 67 868 76 l112 7 0 193 0 194 -34 0 c-43 0 -593 -38 -668 -46 l-58 -6 0 390 0 391 53 5 c28 3 117 8 197 11 80 3 191 8 248 11 l102 6 0 180 0 180 -137 -6 c-76 -3 -211 -9 -300 -12 l-163 -6 0 349 0 350 92 7 c50 3 221 6 380 6 l288 0 0 175 0 175 -600 0 -600 0 0 -1325z"/>
                <path d="M3290 1764 l0 -1267 48 6 c26 3 125 9 220 13 l172 7 0 488 0 488 33 5 c17 3 102 7 187 10 176 5 259 23 372 83 78 41 165 128 204 205 58 115 67 178 68 478 0 257 -1 280 -22 355 -44 151 -127 255 -255 319 -131 64 -165 68 -619 73 l-408 4 0 -1267z m722 915 c65 -14 111 -57 128 -118 7 -28 10 -129 8 -304 -3 -256 -4 -263 -27 -304 -40 -69 -86 -86 -253 -91 l-138 -5 0 417 0 416 115 0 c62 0 138 -5 167 -11z"/>
                <path d="M4800 1790 l0 -1240 220 0 220 0 0 535 0 536 285 -7 285 -7 0 176 0 177 -88 0 c-49 0 -177 3 -285 7 l-197 6 0 359 0 358 360 0 360 0 0 170 0 170 -580 0 -580 0 0 -1240z"/>
                <path d="M6170 1777 l0 -1253 248 -13 c238 -12 715 -44 855 -57 l67 -7 0 196 0 195 -32 5 c-18 3 -168 13 -333 22 -165 9 -313 18 -330 21 l-30 4 3 1070 2 1070 -225 0 -225 0 0 -1253z"/>
                <path d="M7530 1730 c0 -1057 2 -1300 13 -1300 7 0 100 -9 207 -20 107 -11 200 -20 207 -20 11 0 13 247 13 1320 l0 1320 -220 0 -220 0 0 -1300z"/>
                <path d="M8251 2948 c106 -289 279 -767 348 -965 l81 -231 -136 -379 c-163 -453 -356 -1005 -352 -1008 3 -2 338 -44 386 -48 23 -2 32 24 206 548 l182 550 16 -50 c85 -275 220 -725 274 -915 36 -129 68 -237 70 -239 4 -4 458 -80 462 -77 8 8 -244 832 -389 1273 l-100 302 152 433 c83 238 187 535 230 661 l78 227 -206 -2 -206 -3 -158 -465 c-88 -256 -164 -476 -169 -489 -9 -20 -33 42 -165 435 -84 253 -159 474 -165 492 l-12 32 -229 0 -228 0 30 -82z"/>
            </g>
        </svg>